<mxfile host="app.diagrams.net" modified="2023-12-29T07:31:45.033Z" agent="Mozilla/5.0 (Windows NT 10.0; Win64; x64) AppleWebKit/537.36 (KHTML, like Gecko) Chrome/120.0.0.0 Safari/537.36 Edg/120.0.0.0" version="22.1.15" etag="yKB1tRZtR7irKfeA0dIT" type="github">
  <diagram name="페이지-1" id="KEgSSGKR2_dCGQxEhjYz">
    <mxGraphModel>
      <root>
        <mxCell id="0" />
        <mxCell id="1" parent="0" />
      </root>
    </mxGraphModel>
  </diagram>
</mxfile>
